<svg width="30" height="30" viewBox="0 0 30 30" fill="none" xmlns="http://www.w3.org/2000/svg">
<g clip-path="url(#clip0_665_2202)">
<path d="M15.0073 0.227266C8.83885 0.227266 7.03481 0.23363 6.68414 0.26272C5.41827 0.367944 4.63057 0.567256 3.77241 0.994516C3.11107 1.32291 2.58949 1.70359 2.07473 2.23721C1.13726 3.21036 0.569099 4.40759 0.363423 5.83073C0.263426 6.52162 0.234336 6.66253 0.228427 10.1915C0.226154 11.3678 0.228427 12.916 0.228427 14.9925C0.228427 21.156 0.235245 22.9582 0.26479 23.3082C0.367059 24.5399 0.560235 25.3149 0.969314 26.1626C1.75111 27.7853 3.24424 29.0034 5.00328 29.458C5.61236 29.6148 6.28506 29.7011 7.14867 29.7421C7.51457 29.758 11.244 29.7693 14.9757 29.7693C18.7074 29.7693 22.4391 29.7648 22.7959 29.7466C23.7959 29.6996 24.3766 29.6216 25.0186 29.4557C26.789 28.9989 28.2549 27.7989 29.0526 26.1535C29.4537 25.3263 29.6571 24.5218 29.7491 23.3543C29.7691 23.0998 29.7775 19.0415 29.7775 14.9886C29.7775 10.9351 29.7684 6.88434 29.7484 6.6298C29.6553 5.44347 29.4519 4.64577 29.0378 3.80261C28.698 3.11241 28.3208 2.59697 27.773 2.06994C26.7956 1.13633 25.6002 0.568165 24.1757 0.362717C23.4855 0.262947 23.348 0.233402 19.8162 0.227266H15.0073Z" fill="url(#paint0_radial_665_2202)"/>
<path d="M15.0073 0.227266C8.83885 0.227266 7.03481 0.23363 6.68414 0.26272C5.41827 0.367944 4.63057 0.567256 3.77241 0.994516C3.11107 1.32291 2.58949 1.70359 2.07473 2.23721C1.13726 3.21036 0.569099 4.40759 0.363423 5.83073C0.263426 6.52162 0.234336 6.66253 0.228427 10.1915C0.226154 11.3678 0.228427 12.916 0.228427 14.9925C0.228427 21.156 0.235245 22.9582 0.26479 23.3082C0.367059 24.5399 0.560235 25.3149 0.969314 26.1626C1.75111 27.7853 3.24424 29.0034 5.00328 29.458C5.61236 29.6148 6.28506 29.7011 7.14867 29.7421C7.51457 29.758 11.244 29.7693 14.9757 29.7693C18.7074 29.7693 22.4391 29.7648 22.7959 29.7466C23.7959 29.6996 24.3766 29.6216 25.0186 29.4557C26.789 28.9989 28.2549 27.7989 29.0526 26.1535C29.4537 25.3263 29.6571 24.5218 29.7491 23.3543C29.7691 23.0998 29.7775 19.0415 29.7775 14.9886C29.7775 10.9351 29.7684 6.88434 29.7484 6.6298C29.6553 5.44347 29.4519 4.64577 29.0378 3.80261C28.698 3.11241 28.3208 2.59697 27.773 2.06994C26.7956 1.13633 25.6002 0.568165 24.1757 0.362717C23.4855 0.262947 23.348 0.233402 19.8162 0.227266H15.0073Z" fill="url(#paint1_radial_665_2202)"/>
<path d="M15.0004 4.09079C12.0378 4.09079 11.666 4.10374 10.5024 4.15669C9.34105 4.20987 8.54835 4.39373 7.85474 4.6635C7.13726 4.94212 6.52864 5.31484 5.92229 5.92141C5.31549 6.52776 4.94278 7.13638 4.66324 7.85363C4.3928 8.54747 4.20871 9.3404 4.15644 10.5013C4.1044 11.6649 4.09076 12.0369 4.09076 14.9995C4.09076 17.9622 4.10394 18.3329 4.15667 19.4965C4.21007 20.6578 4.39393 21.4505 4.66347 22.1441C4.94232 22.8616 5.31504 23.4702 5.92161 24.0765C6.52773 24.6833 7.13635 25.057 7.85337 25.3356C8.54744 25.6054 9.34037 25.7892 10.5015 25.8424C11.6651 25.8954 12.0367 25.9083 14.9991 25.9083C17.9619 25.9083 18.3326 25.8954 19.4962 25.8424C20.6575 25.7892 21.4511 25.6054 22.1452 25.3356C22.8625 25.057 23.4702 24.6833 24.0763 24.0765C24.6831 23.4702 25.0558 22.8616 25.3353 22.1443C25.6035 21.4505 25.7876 20.6576 25.8421 19.4967C25.8944 18.3331 25.9081 17.9622 25.9081 14.9995C25.9081 12.0369 25.8944 11.6651 25.8421 10.5015C25.7876 9.34017 25.6035 8.54747 25.3353 7.85385C25.0558 7.13638 24.6831 6.52776 24.0763 5.92141C23.4695 5.31461 22.8627 4.9419 22.1445 4.6635C21.4491 4.39373 20.6559 4.20987 19.4946 4.15669C18.331 4.10374 17.9606 4.09079 14.997 4.09079H15.0004ZM14.0218 6.05664C14.3123 6.05618 14.6363 6.05664 15.0004 6.05664C17.9131 6.05664 18.2583 6.06709 19.4085 6.11936C20.4721 6.168 21.0493 6.34572 21.4339 6.49503C21.9429 6.69275 22.3059 6.92911 22.6875 7.31092C23.0693 7.69272 23.3056 8.05635 23.5038 8.56542C23.6531 8.9495 23.8311 9.52676 23.8795 10.5904C23.9317 11.7403 23.9431 12.0858 23.9431 14.997C23.9431 17.9083 23.9317 18.2538 23.8795 19.4037C23.8308 20.4673 23.6531 21.0446 23.5038 21.4287C23.3061 21.9377 23.0693 22.3002 22.6875 22.6818C22.3057 23.0636 21.9432 23.3 21.4339 23.4977C21.0498 23.6477 20.4721 23.825 19.4085 23.8736C18.2585 23.9259 17.9131 23.9372 15.0004 23.9372C12.0876 23.9372 11.7423 23.9259 10.5924 23.8736C9.52878 23.8245 8.95152 23.6468 8.56676 23.4975C8.05768 23.2997 7.69406 23.0634 7.31225 22.6816C6.93045 22.2998 6.69409 21.9371 6.49591 21.4278C6.3466 21.0437 6.16865 20.4664 6.12024 19.4028C6.06797 18.2529 6.05752 17.9074 6.05752 14.9943C6.05752 12.0812 6.06797 11.7376 6.12024 10.5876C6.16888 9.52403 6.3466 8.94678 6.49591 8.56224C6.69363 8.05317 6.93045 7.68954 7.31225 7.30773C7.69406 6.92593 8.05768 6.68957 8.56676 6.49139C8.95129 6.3414 9.52878 6.16413 10.5924 6.11527C11.5987 6.06982 11.9887 6.05618 14.0218 6.05391V6.05664ZM20.8234 7.86794C20.1007 7.86794 19.5144 8.45361 19.5144 9.17654C19.5144 9.89925 20.1007 10.4856 20.8234 10.4856C21.5461 10.4856 22.1325 9.89925 22.1325 9.17654C22.1325 8.45384 21.5461 7.86749 20.8234 7.86749V7.86794ZM15.0004 9.39744C11.9067 9.39744 9.39833 11.9058 9.39833 14.9995C9.39833 18.0933 11.9067 20.6005 15.0004 20.6005C18.0942 20.6005 20.6016 18.0933 20.6016 14.9995C20.6016 11.9058 18.0942 9.39744 15.0004 9.39744ZM15.0004 11.3633C17.0085 11.3633 18.6367 12.9912 18.6367 14.9995C18.6367 17.0077 17.0085 18.6358 15.0004 18.6358C12.9921 18.6358 11.3642 17.0077 11.3642 14.9995C11.3642 12.9912 12.9921 11.3633 15.0004 11.3633Z" fill="white"/>
</g>
<defs>
<radialGradient id="paint0_radial_665_2202" cx="0" cy="0" r="1" gradientUnits="userSpaceOnUse" gradientTransform="translate(8.0767 32.0447) rotate(-90) scale(29.2784 27.2386)">
<stop stop-color="#FFDD55"/>
<stop offset="0.1" stop-color="#FFDD55"/>
<stop offset="0.5" stop-color="#FF543E"/>
<stop offset="1" stop-color="#C837AB"/>
</radialGradient>
<radialGradient id="paint1_radial_665_2202" cx="0" cy="0" r="1" gradientUnits="userSpaceOnUse" gradientTransform="translate(-4.72238 2.35543) rotate(78.6776) scale(13.0877 53.9616)">
<stop stop-color="#3771C8"/>
<stop offset="0.128" stop-color="#3771C8"/>
<stop offset="1" stop-color="#6600FF" stop-opacity="0"/>
</radialGradient>
<clipPath id="clip0_665_2202">
<rect width="30" height="29.9991" fill="white"/>
</clipPath>
</defs>
</svg>
