<svg width="30" height="30" viewBox="0 0 30 30" fill="none" xmlns="http://www.w3.org/2000/svg">
<g clip-path="url(#clip0_665_2205)">
<path d="M15 0C6.55125 0 0 6.19125 0 14.55C0 18.9225 1.7925 22.7025 4.71 25.3125C4.95375 25.53 5.10375 25.8375 5.11125 26.1675L5.19375 28.8375C5.19976 29.034 5.25393 29.2259 5.3515 29.3965C5.44907 29.5672 5.58706 29.7112 5.75333 29.816C5.91961 29.9208 6.10908 29.9832 6.3051 29.9976C6.50111 30.012 6.69767 29.9781 6.8775 29.8988L9.855 28.5863C10.1062 28.4738 10.3913 28.455 10.6575 28.5263C12.0263 28.9013 13.4813 29.1038 15 29.1038C23.4488 29.1038 30 22.9125 30 14.5538C30 6.195 23.4488 0 15 0Z" fill="url(#paint0_radial_665_2205)"/>
<path d="M5.99248 18.8062L10.3987 11.8162C10.5645 11.5531 10.783 11.3271 11.0405 11.1527C11.298 10.9782 11.5888 10.859 11.8947 10.8027C12.2006 10.7463 12.5148 10.7539 12.8176 10.8251C13.1203 10.8963 13.405 11.0295 13.6537 11.2162L17.16 13.845C17.3165 13.9622 17.507 14.0252 17.7025 14.0245C17.898 14.0239 18.088 13.9595 18.2437 13.8412L22.9762 10.2487C23.6062 9.76875 24.4312 10.5262 24.0112 11.1975L19.6012 18.1837C19.4355 18.4469 19.217 18.6729 18.9595 18.8473C18.702 19.0218 18.4111 19.141 18.1053 19.1973C17.7994 19.2537 17.4852 19.2461 17.1824 19.1749C16.8796 19.1037 16.5949 18.9705 16.3462 18.7837L12.84 16.155C12.6835 16.0378 12.493 15.9748 12.2975 15.9755C12.1019 15.9761 11.9119 16.0405 11.7562 16.1587L7.02373 19.7513C6.39373 20.2312 5.56873 19.4775 5.99248 18.8062Z" fill="white"/>
</g>
<defs>
<radialGradient id="paint0_radial_665_2205" cx="0" cy="0" r="1" gradientUnits="userSpaceOnUse" gradientTransform="translate(5.025 30) scale(33 33)">
<stop stop-color="#0099FF"/>
<stop offset="0.6" stop-color="#A033FF"/>
<stop offset="0.9" stop-color="#FF5280"/>
<stop offset="1" stop-color="#FF7061"/>
</radialGradient>
<clipPath id="clip0_665_2205">
<rect width="30" height="30" fill="white"/>
</clipPath>
</defs>
</svg>
