<svg width="27" height="30" viewBox="0 0 27 30" fill="none" xmlns="http://www.w3.org/2000/svg">
<path d="M19.6756 10.8294C21.6127 12.2134 23.9857 13.0277 26.5486 13.0277V8.09832C26.0636 8.09842 25.5798 8.04787 25.1052 7.94738V11.8275C22.5425 11.8275 20.1698 11.0132 18.2322 9.62931V19.6887C18.2322 24.7209 14.1508 28.8 9.11628 28.8C7.2378 28.8 5.49182 28.2324 4.04144 27.2589C5.69681 28.9506 8.00535 30.0001 10.5593 30.0001C15.5941 30.0001 19.6758 25.921 19.6758 20.8886V10.8294H19.6756ZM21.4562 5.85629C20.4662 4.77533 19.8163 3.37838 19.6756 1.834V1.19998H18.3078C18.6521 3.16289 19.8265 4.83988 21.4562 5.85629ZM7.22575 23.3974C6.67266 22.6725 6.37377 21.7859 6.3751 20.8742C6.3751 18.5726 8.24195 16.7065 10.5451 16.7065C10.9744 16.7064 11.401 16.7721 11.8101 16.9018V11.8623C11.3321 11.7968 10.8496 11.769 10.3673 11.7792V15.7017C9.95796 15.572 9.5311 15.5061 9.10176 15.5065C6.79857 15.5065 4.93183 17.3724 4.93183 19.6743C4.93183 21.3018 5.86494 22.7109 7.22575 23.3974Z" fill="#FF004F"/>
<path d="M18.2323 9.62921C20.1698 11.0131 22.5425 11.8274 25.1053 11.8274V7.94728C23.6748 7.64273 22.4084 6.89555 21.4562 5.85629C19.8264 4.83978 18.6521 3.16279 18.3078 1.19998H14.715V20.8884C14.7068 23.1836 12.8432 25.0421 10.5449 25.0421C9.19063 25.0421 7.98746 24.3969 7.22546 23.3974C5.86476 22.7109 4.93164 21.3017 4.93164 19.6744C4.93164 17.3727 6.79839 15.5066 9.10157 15.5066C9.54285 15.5066 9.96817 15.5753 10.3671 15.7018V11.7793C5.42111 11.8814 1.4433 15.9207 1.4433 20.8885C1.4433 23.3683 2.43386 25.6164 4.04156 27.259C5.49194 28.2324 7.23792 28.8001 9.1164 28.8001C14.151 28.8001 18.2324 24.7208 18.2324 19.6887V9.62921H18.2323Z" fill="black"/>
<path d="M25.1052 7.94728V6.89813C23.8153 6.90009 22.5506 6.53901 21.4562 5.85619C22.425 6.91635 23.7008 7.64736 25.1052 7.94728ZM18.3078 1.19998C18.275 1.01239 18.2497 0.823567 18.2322 0.63402V0H13.2715V19.6886C13.2635 21.9835 11.4 23.842 9.10155 23.842C8.42676 23.842 7.78965 23.6819 7.22543 23.3975C7.98743 24.3969 9.19061 25.042 10.5449 25.042C12.843 25.042 14.7069 23.1837 14.715 20.8885V1.19998H18.3078ZM10.3673 11.7793V10.6624C9.95281 10.6058 9.5349 10.5774 9.11648 10.5776C4.08149 10.5775 0 14.6568 0 19.6886C0 22.8432 1.6041 25.6234 4.04164 27.2588C2.43394 25.6163 1.44338 23.3681 1.44338 20.8884C1.44338 15.9207 5.42108 11.8814 10.3673 11.7793Z" fill="#00F2EA"/>
</svg>
