<svg width="30" height="31" viewBox="0 0 30 31" fill="none" xmlns="http://www.w3.org/2000/svg">
<path d="M0 30L2.11926 22.2969C0.810009 20.0371 0.1223 17.4737 0.125463 14.865C0.128914 6.66833 6.82919 0 15.0628 0C19.0584 0.00202107 22.8086 1.54996 25.6291 4.35986C28.4496 7.16976 30.0014 10.9047 30 14.8769C29.9963 23.073 23.2951 29.7425 15.0626 29.7425H15.0561C12.5564 29.7415 10.1002 29.1172 7.91836 27.9328L0 30Z" fill="white"/>
<path d="M15.0049 2.50003C8.10981 2.50003 2.50247 8.10507 2.50001 14.9945C2.49662 17.347 3.15913 19.6525 4.41096 21.6444L4.70837 22.1171L3.44537 26.7278L8.17644 25.4874L8.63328 25.758C10.552 26.8966 12.752 27.4988 14.9955 27.5H15.0002C21.8899 27.5 27.4973 21.8944 27.4999 15.0045C27.5051 13.3623 27.1845 11.7355 26.5567 10.218C25.9288 8.70062 25.0062 7.3228 23.8422 6.16437C22.6846 4.9996 21.3075 4.07599 19.7906 3.447C18.2737 2.81801 16.647 2.49615 15.0049 2.50003Z" fill="url(#paint0_linear_665_2201)"/>
<path fill-rule="evenodd" clip-rule="evenodd" d="M11.3138 8.1387C11.0372 7.53135 10.7461 7.51905 10.4833 7.50853L9.7759 7.5C9.52978 7.5 9.12988 7.59127 8.79182 7.95635C8.45376 8.32144 7.5 9.20379 7.5 10.9984C7.5 12.7931 8.82254 14.5273 9.00682 14.7709C9.19111 15.0146 11.56 18.8148 15.3114 20.2769C18.4288 21.492 19.0632 21.2503 19.7401 21.1896C20.417 21.1289 21.9236 20.3073 22.231 19.4555C22.5383 18.6037 22.5385 17.8739 22.4464 17.7213C22.3542 17.5688 22.1081 17.4781 21.7387 17.2955C21.3694 17.113 19.5552 16.2306 19.2169 16.1088C18.8787 15.987 18.6328 15.9265 18.3864 16.2916C18.1401 16.6566 17.4337 17.4779 17.2183 17.7213C17.0029 17.9648 16.7879 17.9953 16.4185 17.813C16.0491 17.6307 14.8607 17.2453 13.4506 16.0027C12.3535 15.0358 11.613 13.8417 11.3973 13.4768C11.1817 13.112 11.3745 12.9143 11.5596 12.7326C11.7252 12.5691 11.9285 12.3066 12.1134 12.0937C12.2983 11.8808 12.3591 11.7286 12.482 11.4856C12.6049 11.2425 12.5436 11.029 12.4513 10.8467C12.3589 10.6643 11.6419 8.86013 11.3138 8.1387Z" fill="white"/>
<defs>
<linearGradient id="paint0_linear_665_2201" x1="14.7455" y1="4.00027" x2="14.8722" y2="25.3643" gradientUnits="userSpaceOnUse">
<stop stop-color="#57D163"/>
<stop offset="1" stop-color="#23B33A"/>
</linearGradient>
</defs>
</svg>
