<svg width="30" height="30" viewBox="0 0 30 30" fill="none" xmlns="http://www.w3.org/2000/svg">
<g clip-path="url(#clip0_672_5326)">
<path d="M24.375 8.75C23.3452 7.20874 21.9505 5.94581 20.315 5.07351C18.6794 4.20121 16.8537 3.74657 15 3.75C13.1496 3.74887 11.3275 4.20466 9.69553 5.0769C8.06356 5.94914 6.67222 7.21085 5.64502 8.75" stroke="black" stroke-width="1.5" stroke-linecap="round" stroke-linejoin="round"/>
<path d="M14.375 3.75C13.4008 5.31076 12.6336 6.9915 12.0925 8.75" stroke="black" stroke-width="1.5" stroke-linecap="round" stroke-linejoin="round"/>
<path d="M15.625 3.75C16.6001 5.31063 17.3682 6.99137 17.91 8.75" stroke="black" stroke-width="1.5" stroke-linecap="round" stroke-linejoin="round"/>
<path d="M24.375 21.25C23.3452 22.7913 21.9505 24.0542 20.315 24.9265C18.6794 25.7988 16.8537 26.2534 15 26.25C13.1496 26.2511 11.3275 25.7953 9.69553 24.9231C8.06356 24.0509 6.67222 22.7892 5.64502 21.25" stroke="black" stroke-width="1.5" stroke-linecap="round" stroke-linejoin="round"/>
<path d="M14.375 26.25C13.4008 24.6892 12.6336 23.0085 12.0925 21.25" stroke="black" stroke-width="1.5" stroke-linecap="round" stroke-linejoin="round"/>
<path d="M15.625 26.25C16.6001 24.6894 17.3682 23.0086 17.91 21.25" stroke="black" stroke-width="1.5" stroke-linecap="round" stroke-linejoin="round"/>
<path d="M2.5 12.5L3.75 17.5L5.625 12.5L7.5 17.5L8.75 12.5" stroke="black" stroke-width="1.5" stroke-linecap="round" stroke-linejoin="round"/>
<path d="M21.25 12.5L22.5 17.5L24.375 12.5L26.25 17.5L27.5 12.5" stroke="black" stroke-width="1.5" stroke-linecap="round" stroke-linejoin="round"/>
<path d="M11.875 12.5L13.125 17.5L15 12.5L16.875 17.5L18.125 12.5" stroke="black" stroke-width="1.5" stroke-linecap="round" stroke-linejoin="round"/>
</g>
<defs>
<clipPath id="clip0_672_5326">
<rect width="30" height="30" fill="white"/>
</clipPath>
</defs>
</svg>
